<svg xmlns="http://www.w3.org/2000/svg" xmlns:xlink="http://www.w3.org/1999/xlink" width="1080" zoomAndPan="magnify" viewBox="0 0 810 809.999993" height="1080" preserveAspectRatio="xMidYMid meet" version="1.0"><defs><clipPath id="50e941d589"><path d="M 81 138 L 766 138 L 766 673 L 81 673 Z M 81 138 " clip-rule="nonzero"/></clipPath></defs><g clip-path="url(#50e941d589)"><path fill="#000000" d="M 763.804688 605.328125 C 762.457031 603.078125 623.855469 376.671875 600.933594 325.578125 C 577.558594 277.332031 602.28125 273.285156 618.914062 237.773438 C 631.796875 210.054688 623.707031 194.46875 600.332031 188.175781 L 600.332031 145.773438 C 600.332031 141.578125 597.035156 138.28125 592.839844 138.28125 C 588.644531 138.28125 585.347656 141.578125 585.347656 145.773438 L 585.347656 186.976562 C 565.570312 186.527344 536.953125 206.605469 528.113281 215.898438 C 519.269531 206.605469 490.800781 186.527344 471.023438 186.976562 L 471.023438 145.773438 C 471.023438 141.578125 467.726562 138.28125 463.53125 138.28125 C 459.335938 138.28125 456.039062 141.578125 456.039062 145.773438 L 456.039062 188.175781 C 414.984375 197.617188 434.3125 238.671875 453.042969 263.394531 C 480.3125 294.5625 454.390625 327.375 431.917969 370.378906 L 431.917969 259.5 C 432.066406 246.914062 427.421875 228.183594 417.832031 221.890625 C 415.882812 220.691406 402.097656 212.300781 377.527344 202.5625 C 345.3125 189.675781 325.832031 173.640625 314.445312 151.765625 C 313.246094 149.519531 310.699219 148.320312 308.152344 148.167969 C 308.152344 148.167969 204.164062 148.167969 204.164062 148.167969 C 201.320312 148.167969 198.769531 149.816406 197.421875 152.214844 C 186.484375 173.792969 166.554688 189.824219 134.792969 202.5625 C 110.367188 212.300781 96.433594 220.839844 94.933594 221.742188 C 84.894531 227.882812 80.402344 246.761719 80.402344 259.5 C 80.402344 259.5 80.402344 583 80.402344 583 C 80.402344 587.195312 83.695312 590.492188 87.890625 590.492188 C 98.679688 589.59375 127.449219 593.339844 136.4375 586.746094 C 137.789062 588.996094 140.035156 590.492188 142.882812 590.492188 L 167.605469 590.492188 C 207.460938 590.492188 241.625 566.21875 256.308594 531.605469 C 265.898438 554.382812 284.027344 572.664062 306.652344 582.550781 L 292.71875 605.476562 C 290.921875 608.472656 291.371094 612.519531 294.066406 614.917969 C 296.613281 617.316406 356.546875 672.003906 402.097656 672.003906 L 654.871094 672.003906 C 700.421875 672.003906 760.207031 617.164062 762.753906 614.917969 C 765.300781 612.519531 765.902344 608.625 764.101562 605.476562 Z M 416.78125 575.359375 L 389.511719 575.359375 C 382.621094 575.359375 376.925781 569.664062 376.925781 562.773438 C 377.375 524.265625 375.578125 401.546875 378.726562 365.4375 C 382.921875 321.832031 386.664062 274.332031 411.839844 237.324219 C 415.136719 243.765625 416.933594 251.558594 416.933594 259.5 C 416.933594 259.5 416.933594 575.507812 416.933594 575.507812 Z M 316.691406 248.5625 L 327.628906 259.800781 L 266.199219 385.964844 C 285.078125 321.832031 310.101562 257.101562 315.34375 190.125 L 331.226562 225.785156 L 317.140625 237.472656 C 313.84375 240.171875 313.546875 245.566406 316.542969 248.410156 Z M 195.023438 237.472656 L 180.941406 225.785156 L 196.824219 190.125 C 201.769531 255.902344 227.390625 322.433594 245.96875 385.8125 L 184.535156 259.648438 C 189.332031 253.65625 203.566406 245.566406 195.023438 237.472656 Z M 225.140625 263.246094 C 220.046875 244.816406 215.851562 226.683594 213.90625 207.503906 C 220.347656 213.347656 227.691406 219.792969 233.683594 223.988281 L 229.039062 277.332031 C 227.691406 272.6875 226.339844 267.890625 225.140625 263.394531 Z M 256.160156 367.832031 C 251.964844 354.347656 246.269531 336.066406 240.574219 316.886719 L 248.066406 231.328125 C 253.3125 232.527344 258.855469 232.527344 264.25 231.328125 L 271.742188 316.886719 C 266.046875 336.066406 260.355469 354.347656 256.007812 367.984375 Z M 297.960938 212.75 C 294.816406 235.976562 290.171875 252.90625 283.429688 277.179688 L 278.785156 223.6875 C 285.527344 219.191406 292.269531 213.648438 298.5625 208.105469 C 298.414062 209.601562 298.261719 211.25 298.113281 212.75 Z M 265.898438 214.25 C 252.5625 222.039062 241.476562 211.851562 231.136719 202.859375 C 239.976562 188.027344 272.492188 187.578125 280.730469 203.460938 C 275.9375 207.355469 270.992188 211.101562 265.898438 214.097656 Z M 300.511719 184.28125 C 297.664062 187.578125 294.816406 190.722656 291.820312 193.570312 C 277.585938 170.945312 233.832031 171.84375 220.046875 192.671875 C 217.351562 190.125 214.503906 187.128906 211.65625 183.980469 C 211.207031 175.140625 211.207031 167.796875 211.359375 162.855469 L 300.960938 162.855469 C 300.960938 167.796875 300.960938 175.140625 300.660156 184.132812 Z M 122.65625 575.359375 L 95.382812 575.359375 L 95.382812 259.351562 C 95.382812 251.558594 97.183594 243.617188 100.480469 237.171875 C 109.617188 248.410156 114.863281 263.695312 119.207031 277.628906 C 132.09375 322.582031 134.941406 369.480469 135.242188 416.230469 C 135.242188 416.230469 135.242188 562.625 135.242188 562.625 C 135.242188 569.515625 129.546875 575.210938 122.65625 575.210938 Z M 167.457031 575.359375 L 150.222656 575.359375 L 150.222656 482.757812 L 193.226562 482.757812 C 197.421875 482.757812 200.71875 479.460938 200.71875 475.265625 C 200.71875 471.070312 197.421875 467.777344 193.226562 467.777344 L 150.222656 467.777344 C 150.222656 419.226562 151.125 365.285156 143.183594 317.636719 C 137.636719 286.769531 131.496094 254.40625 112.765625 228.78125 C 129.546875 219.941406 162.359375 208.703125 177.644531 196.269531 L 164.910156 224.886719 C 163.558594 227.882812 164.308594 231.480469 167.007812 233.726562 L 179.144531 243.917969 C 175.695312 248.410156 164.910156 254.703125 168.804688 261.597656 C 168.804688 261.597656 248.667969 425.222656 248.667969 425.222656 C 248.515625 425.519531 248.667969 494.445312 248.667969 494.746094 C 248.367188 539.25 212.105469 575.507812 167.457031 575.507812 Z M 263.648438 494.597656 C 263.648438 494.597656 263.648438 425.222656 263.648438 425.222656 C 263.648438 425.222656 343.511719 261.449219 343.511719 261.449219 C 347.410156 254.703125 336.472656 248.113281 333.175781 243.765625 C 338.71875 238.222656 351.15625 232.527344 347.410156 224.738281 C 347.410156 224.738281 334.671875 196.269531 334.671875 196.269531 C 349.957031 208.554688 382.769531 219.941406 399.550781 228.78125 C 380.824219 254.40625 374.679688 286.769531 369.136719 317.636719 C 361.195312 365.136719 361.941406 419.226562 362.09375 467.777344 L 319.089844 467.777344 C 314.894531 467.777344 311.597656 471.070312 311.597656 475.265625 C 311.597656 479.460938 314.894531 482.757812 319.089844 482.757812 L 362.09375 482.757812 L 362.09375 575.359375 C 310.25 580.605469 264.847656 548.6875 263.648438 494.597656 Z M 654.574219 656.871094 L 401.800781 656.871094 C 368.6875 656.871094 322.984375 620.160156 308.601562 607.726562 L 321.039062 587.195312 C 334.375 591.242188 355.5 590.195312 369.585938 590.34375 C 372.28125 590.34375 374.679688 588.84375 376.027344 586.597656 C 383.820312 592.441406 402.847656 589.894531 411.988281 590.34375 L 406.59375 606.375 C 403.597656 615.667969 417.53125 620.460938 420.828125 611.171875 C 420.828125 611.171875 428.171875 589.292969 428.171875 589.292969 C 432.515625 587.347656 432.214844 581.652344 432.066406 577.605469 C 432.066406 577.605469 503.089844 364.386719 503.089844 364.386719 C 504.4375 360.492188 502.339844 356.144531 498.292969 354.945312 C 494.398438 353.75 490.203125 355.695312 488.855469 359.742188 L 432.066406 530.257812 L 432.066406 400.796875 C 463.980469 339.664062 500.839844 299.65625 465.628906 255.003906 C 461.132812 248.410156 456.039062 240.917969 451.09375 231.03125 C 443.453125 216.945312 444.652344 203.011719 464.28125 201.960938 C 473.121094 201.363281 482.859375 203.460938 490.652344 207.503906 C 514.476562 220.242188 521.96875 231.179688 521.96875 231.332031 C 523.316406 233.429688 525.714844 234.777344 528.261719 234.777344 C 530.507812 234.777344 533.207031 233.578125 534.554688 231.480469 C 534.554688 231.480469 542.34375 220.390625 566.019531 207.503906 C 577.40625 201.0625 600.929688 197.917969 608.722656 209.453125 C 612.167969 215.445312 609.023438 224.4375 605.726562 230.878906 C 586.246094 268.640625 561.972656 277.480469 587.445312 331.570312 C 609.023438 379.671875 726.195312 572.0625 747.921875 607.726562 C 733.535156 620.160156 687.988281 656.871094 654.871094 656.871094 Z M 567.816406 359.59375 L 650.078125 606.375 C 651.425781 610.273438 649.328125 614.46875 645.285156 615.816406 C 641.539062 617.164062 637.042969 615.066406 635.84375 611.019531 L 553.582031 364.238281 C 552.234375 360.339844 554.332031 355.996094 558.378906 354.796875 C 562.273438 353.597656 566.46875 355.546875 567.816406 359.59375 Z M 567.816406 359.59375 " fill-opacity="1" fill-rule="nonzero"/></g><path stroke-linecap="butt" transform="matrix(0.75, 0, 0, 0.75, 404.999983, 666.607138)" fill="none" stroke-linejoin="miter" d="M 0.0000225 1.997774 L 345.598998 1.997774 " stroke="#000000" stroke-width="4" stroke-opacity="1" stroke-miterlimit="4"/></svg>